<?xml version="1.0" encoding="UTF-8" standalone="no"?><svg xmlns="http://www.w3.org/2000/svg" xmlns:xlink="http://www.w3.org/1999/xlink" contentScriptType="application/ecmascript" contentStyleType="text/css" height="651px" preserveAspectRatio="none" style="width:1160px;height:651px;" version="1.1" viewBox="0 0 1160 651" width="1160px" zoomAndPan="magnify"><defs><filter height="300%" id="f16gbjcno9b4uv" width="300%" x="-1" y="-1"><feGaussianBlur result="blurOut" stdDeviation="2.0"/><feColorMatrix in="blurOut" result="blurOut2" type="matrix" values="0 0 0 0 0 0 0 0 0 0 0 0 0 0 0 0 0 0 .4 0"/><feOffset dx="4.0" dy="4.0" in="blurOut2" result="blurOut3"/><feBlend in="SourceGraphic" in2="blurOut3" mode="normal"/></filter></defs><g><!--MD5=[9f13ad37cf22234b869a4e878ffdc425]
class MazeMain--><a href="java:Maze.MazeMain" target="_top" title="java:Maze.MazeMain" xlink:actuate="onRequest" xlink:href="java:Maze.MazeMain" xlink:show="new" xlink:title="java:Maze.MazeMain" xlink:type="simple"><rect codeLine="1" fill="#FEFECE" filter="url(#f16gbjcno9b4uv)" height="60.8047" id="MazeMain" style="stroke:#A80036;stroke-width:1.5;" width="169" x="7.5" y="192.5"/><ellipse cx="57.75" cy="208.5" fill="#ADD1B2" rx="11" ry="11" style="stroke:#A80036;stroke-width:1.0;"/><path d="M60.7188,214.1406 Q60.1406,214.4375 59.5,214.5781 Q58.8594,214.7344 58.1563,214.7344 Q55.6563,214.7344 54.3281,213.0938 Q53.0156,211.4375 53.0156,208.3125 Q53.0156,205.1875 54.3281,203.5313 Q55.6563,201.875 58.1563,201.875 Q58.8594,201.875 59.5,202.0313 Q60.1563,202.1875 60.7188,202.4844 L60.7188,205.2031 Q60.0938,204.625 59.5,204.3594 Q58.9063,204.0781 58.2813,204.0781 Q56.9375,204.0781 56.25,205.1563 Q55.5625,206.2188 55.5625,208.3125 Q55.5625,210.4063 56.25,211.4844 Q56.9375,212.5469 58.2813,212.5469 Q58.9063,212.5469 59.5,212.2813 Q60.0938,212 60.7188,211.4219 L60.7188,214.1406 Z " fill="#000000"/><text fill="#000000" font-family="sans-serif" font-size="12" lengthAdjust="spacing" textLength="60" x="78.25" y="212.6543">MazeMain</text><line style="stroke:#A80036;stroke-width:1.5;" x1="8.5" x2="175.5" y1="224.5" y2="224.5"/><line style="stroke:#A80036;stroke-width:1.5;" x1="8.5" x2="175.5" y1="232.5" y2="232.5"/><ellipse cx="18.5" cy="243.5" fill="#84BE84" rx="3" ry="3" style="stroke:#038048;stroke-width:1.0;"/><text fill="#000000" font-family="sans-serif" font-size="11" lengthAdjust="spacing" text-decoration="underline" textLength="143" x="27.5" y="246.7104">main(args: String[]): void</text></a><!--MD5=[2cebffe841fe5994e2c81e37ae4b2a2b]
class SideWinderMaze--><a href="java:Maze.SideWinderMaze" target="_top" title="java:Maze.SideWinderMaze" xlink:actuate="onRequest" xlink:href="java:Maze.SideWinderMaze" xlink:show="new" xlink:title="java:Maze.SideWinderMaze" xlink:type="simple"><rect codeLine="4" fill="#FEFECE" filter="url(#f16gbjcno9b4uv)" height="112.0234" id="SideWinderMaze" style="stroke:#A80036;stroke-width:1.5;" width="204" x="7" y="513"/><ellipse cx="54.25" cy="529" fill="#ADD1B2" rx="11" ry="11" style="stroke:#A80036;stroke-width:1.0;"/><path d="M57.2188,534.6406 Q56.6406,534.9375 56,535.0781 Q55.3594,535.2344 54.6563,535.2344 Q52.1563,535.2344 50.8281,533.5938 Q49.5156,531.9375 49.5156,528.8125 Q49.5156,525.6875 50.8281,524.0313 Q52.1563,522.375 54.6563,522.375 Q55.3594,522.375 56,522.5313 Q56.6563,522.6875 57.2188,522.9844 L57.2188,525.7031 Q56.5938,525.125 56,524.8594 Q55.4063,524.5781 54.7813,524.5781 Q53.4375,524.5781 52.75,525.6563 Q52.0625,526.7188 52.0625,528.8125 Q52.0625,530.9063 52.75,531.9844 Q53.4375,533.0469 54.7813,533.0469 Q55.4063,533.0469 56,532.7813 Q56.5938,532.5 57.2188,531.9219 L57.2188,534.6406 Z " fill="#000000"/><text fill="#000000" font-family="sans-serif" font-size="12" lengthAdjust="spacing" textLength="101" x="74.75" y="533.1543">SideWinderMaze</text><line style="stroke:#A80036;stroke-width:1.5;" x1="8" x2="210" y1="545" y2="545"/><rect fill="none" height="6" style="stroke:#C82930;stroke-width:1.0;" width="6" x="15" y="553"/><text fill="#000000" font-family="sans-serif" font-size="11" lengthAdjust="spacing" textLength="61" x="27" y="559.2104">casser: int</text><line style="stroke:#A80036;stroke-width:1.5;" x1="8" x2="210" y1="565.8047" y2="565.8047"/><ellipse cx="18" cy="576.8047" fill="#84BE84" rx="3" ry="3" style="stroke:#038048;stroke-width:1.0;"/><text fill="#000000" font-family="sans-serif" font-size="11" lengthAdjust="spacing" textLength="167" x="27" y="580.0151">SideWinderMaze(w: int, h: int)</text><ellipse cx="18" cy="589.6094" fill="#84BE84" rx="3" ry="3" style="stroke:#038048;stroke-width:1.0;"/><text fill="#000000" font-family="sans-serif" font-size="11" lengthAdjust="spacing" textLength="84" x="27" y="592.8198">initMaze(): void</text><rect fill="#F24D5C" height="6" style="stroke:#C82930;stroke-width:1.0;" width="6" x="15" y="599.4141"/><text fill="#000000" font-family="sans-serif" font-size="11" lengthAdjust="spacing" textLength="178" x="27" y="605.6245">openEastWall(y: int, x: int): void</text><rect fill="#F24D5C" height="6" style="stroke:#C82930;stroke-width:1.0;" width="6" x="15" y="612.2188"/><text fill="#000000" font-family="sans-serif" font-size="11" lengthAdjust="spacing" textLength="99" x="27" y="618.4292">randomPath(): int</text></a><!--MD5=[572cc6a1bc3a05a2dbf5da1e45f98cfb]
class Maze--><a href="java:Maze.Maze" target="_top" title="java:Maze.Maze" xlink:actuate="onRequest" xlink:href="java:Maze.Maze" xlink:show="new" xlink:title="java:Maze.Maze" xlink:type="simple"><rect codeLine="81" fill="#FEFECE" filter="url(#f16gbjcno9b4uv)" height="227.2656" id="Maze" style="stroke:#A80036;stroke-width:1.5;" width="235" x="211.5" y="109.5"/><ellipse cx="309.25" cy="125.5" fill="#ADD1B2" rx="11" ry="11" style="stroke:#A80036;stroke-width:1.0;"/><path d="M312.2188,131.1406 Q311.6406,131.4375 311,131.5781 Q310.3594,131.7344 309.6563,131.7344 Q307.1563,131.7344 305.8281,130.0938 Q304.5156,128.4375 304.5156,125.3125 Q304.5156,122.1875 305.8281,120.5313 Q307.1563,118.875 309.6563,118.875 Q310.3594,118.875 311,119.0313 Q311.6563,119.1875 312.2188,119.4844 L312.2188,122.2031 Q311.5938,121.625 311,121.3594 Q310.4063,121.0781 309.7813,121.0781 Q308.4375,121.0781 307.75,122.1563 Q307.0625,123.2188 307.0625,125.3125 Q307.0625,127.4063 307.75,128.4844 Q308.4375,129.5469 309.7813,129.5469 Q310.4063,129.5469 311,129.2813 Q311.5938,129 312.2188,128.4219 L312.2188,131.1406 Z " fill="#000000"/><text fill="#000000" font-family="sans-serif" font-size="12" lengthAdjust="spacing" textLength="31" x="329.75" y="129.6543">Maze</text><line style="stroke:#A80036;stroke-width:1.5;" x1="212.5" x2="445.5" y1="141.5" y2="141.5"/><polygon fill="none" points="222.5,147.5,226.5,151.5,222.5,155.5,218.5,151.5" style="stroke:#B38D22;stroke-width:1.0;"/><text fill="#000000" font-family="sans-serif" font-size="11" lengthAdjust="spacing" textLength="91" x="231.5" y="155.7104">theCells: Cell[][]</text><polygon fill="none" points="222.5,160.3047,226.5,164.3047,222.5,168.3047,218.5,164.3047" style="stroke:#B38D22;stroke-width:1.0;"/><text fill="#000000" font-family="sans-serif" font-size="11" lengthAdjust="spacing" textLength="52" x="231.5" y="168.5151">width: int</text><polygon fill="none" points="222.5,173.1094,226.5,177.1094,222.5,181.1094,218.5,177.1094" style="stroke:#B38D22;stroke-width:1.0;"/><text fill="#000000" font-family="sans-serif" font-size="11" lengthAdjust="spacing" textLength="57" x="231.5" y="181.3198">height: int</text><polygon fill="none" points="222.5,185.9141,226.5,189.9141,222.5,193.9141,218.5,189.9141" style="stroke:#B38D22;stroke-width:1.0;"/><text fill="#000000" font-family="sans-serif" font-size="11" lengthAdjust="spacing" text-decoration="underline" textLength="81" x="231.5" y="194.1245">ALEA: Random</text><line style="stroke:#A80036;stroke-width:1.5;" x1="212.5" x2="445.5" y1="200.7188" y2="200.7188"/><ellipse cx="222.5" cy="211.7188" fill="#84BE84" rx="3" ry="3" style="stroke:#038048;stroke-width:1.0;"/><text fill="#000000" font-family="sans-serif" font-size="11" lengthAdjust="spacing" textLength="104" x="231.5" y="214.9292">Maze(w: int, h: int)</text><ellipse cx="222.5" cy="224.5234" fill="#84BE84" rx="3" ry="3" style="stroke:#038048;stroke-width:1.0;"/><text fill="#000000" font-family="sans-serif" font-size="11" lengthAdjust="spacing" textLength="78" x="231.5" y="227.7339">getWidth(): int</text><ellipse cx="222.5" cy="237.3281" fill="#84BE84" rx="3" ry="3" style="stroke:#038048;stroke-width:1.0;"/><text fill="#000000" font-family="sans-serif" font-size="11" lengthAdjust="spacing" textLength="84" x="231.5" y="240.5386">getHeight(): int</text><ellipse cx="222.5" cy="250.1328" fill="#84BE84" rx="3" ry="3" style="stroke:#038048;stroke-width:1.0;"/><text fill="#000000" font-family="sans-serif" font-size="11" lengthAdjust="spacing" textLength="140" x="231.5" y="253.3433">getCell(x: int, y: int): Cell</text><ellipse cx="222.5" cy="262.9375" fill="#84BE84" rx="3" ry="3" style="stroke:#038048;stroke-width:1.0;"/><text fill="#000000" font-family="sans-serif" font-size="11" lengthAdjust="spacing" textLength="108" x="231.5" y="266.1479">openAllCells(): void</text><ellipse cx="222.5" cy="275.7422" fill="#84BE84" rx="3" ry="3" style="stroke:#038048;stroke-width:1.0;"/><text fill="#000000" font-family="sans-serif" font-size="11" font-style="italic" lengthAdjust="spacing" textLength="86" x="231.5" y="278.9526">initMaze(): void</text><ellipse cx="222.5" cy="288.5469" fill="#84BE84" rx="3" ry="3" style="stroke:#038048;stroke-width:1.0;"/><text fill="#000000" font-family="sans-serif" font-size="11" lengthAdjust="spacing" textLength="209" x="231.5" y="291.7573">getAllmobileNpc(): List&lt;Mobile_NPC&gt;</text><ellipse cx="222.5" cy="301.3516" fill="#84BE84" rx="3" ry="3" style="stroke:#038048;stroke-width:1.0;"/><text fill="#000000" font-family="sans-serif" font-size="11" lengthAdjust="spacing" textLength="95" x="231.5" y="304.562">toString(): String</text><ellipse cx="222.5" cy="314.1563" fill="#84BE84" rx="3" ry="3" style="stroke:#038048;stroke-width:1.0;"/><text fill="#000000" font-family="sans-serif" font-size="11" lengthAdjust="spacing" textLength="79" x="231.5" y="317.3667">display(): void</text><ellipse cx="222.5" cy="326.9609" fill="#84BE84" rx="3" ry="3" style="stroke:#038048;stroke-width:1.0;"/><text fill="#000000" font-family="sans-serif" font-size="11" lengthAdjust="spacing" textLength="163" x="231.5" y="330.1714">getCellByNumber(x: int): Cell</text></a><!--MD5=[2748078f1b5e1c800a1550ef2b177ffc]
class BinaryMaze--><a href="java:Maze.BinaryMaze" target="_top" title="java:Maze.BinaryMaze" xlink:actuate="onRequest" xlink:href="java:Maze.BinaryMaze" xlink:show="new" xlink:title="java:Maze.BinaryMaze" xlink:type="simple"><rect codeLine="14" fill="#FEFECE" filter="url(#f16gbjcno9b4uv)" height="112.0234" id="BinaryMaze" style="stroke:#A80036;stroke-width:1.5;" width="166" x="246" y="513"/><ellipse cx="290.25" cy="529" fill="#ADD1B2" rx="11" ry="11" style="stroke:#A80036;stroke-width:1.0;"/><path d="M293.2188,534.6406 Q292.6406,534.9375 292,535.0781 Q291.3594,535.2344 290.6563,535.2344 Q288.1563,535.2344 286.8281,533.5938 Q285.5156,531.9375 285.5156,528.8125 Q285.5156,525.6875 286.8281,524.0313 Q288.1563,522.375 290.6563,522.375 Q291.3594,522.375 292,522.5313 Q292.6563,522.6875 293.2188,522.9844 L293.2188,525.7031 Q292.5938,525.125 292,524.8594 Q291.4063,524.5781 290.7813,524.5781 Q289.4375,524.5781 288.75,525.6563 Q288.0625,526.7188 288.0625,528.8125 Q288.0625,530.9063 288.75,531.9844 Q289.4375,533.0469 290.7813,533.0469 Q291.4063,533.0469 292,532.7813 Q292.5938,532.5 293.2188,531.9219 L293.2188,534.6406 Z " fill="#000000"/><text fill="#000000" font-family="sans-serif" font-size="12" lengthAdjust="spacing" textLength="69" x="310.75" y="533.1543">BinaryMaze</text><line style="stroke:#A80036;stroke-width:1.5;" x1="247" x2="411" y1="545" y2="545"/><polygon fill="none" points="257,551,261,555,257,559,253,555" style="stroke:#B38D22;stroke-width:1.0;"/><text fill="#000000" font-family="sans-serif" font-size="11" lengthAdjust="spacing" textLength="63" x="266" y="559.2104">INDEST: int</text><polygon fill="none" points="257,563.8047,261,567.8047,257,571.8047,253,567.8047" style="stroke:#B38D22;stroke-width:1.0;"/><text fill="#000000" font-family="sans-serif" font-size="11" lengthAdjust="spacing" textLength="65" x="266" y="572.0151">INDSUD: int</text><line style="stroke:#A80036;stroke-width:1.5;" x1="247" x2="411" y1="578.6094" y2="578.6094"/><ellipse cx="257" cy="589.6094" fill="#84BE84" rx="3" ry="3" style="stroke:#038048;stroke-width:1.0;"/><text fill="#000000" font-family="sans-serif" font-size="11" lengthAdjust="spacing" textLength="140" x="266" y="592.8198">BinaryMaze(w: int, h: int)</text><ellipse cx="257" cy="602.4141" fill="#84BE84" rx="3" ry="3" style="stroke:#038048;stroke-width:1.0;"/><text fill="#000000" font-family="sans-serif" font-size="11" lengthAdjust="spacing" textLength="84" x="266" y="605.6245">initMaze(): void</text><rect fill="#F24D5C" height="6" style="stroke:#C82930;stroke-width:1.0;" width="6" x="254" y="612.2188"/><text fill="#000000" font-family="sans-serif" font-size="11" lengthAdjust="spacing" textLength="99" x="266" y="618.4292">randomPath(): int</text></a><!--MD5=[fea3dc74c7473bae0133d22265a91e2f]
class Cell--><a href="java:Maze.Cell" target="_top" title="java:Maze.Cell" xlink:actuate="onRequest" xlink:href="java:Maze.Cell" xlink:show="new" xlink:title="java:Maze.Cell" xlink:type="simple"><rect codeLine="40" fill="#FEFECE" filter="url(#f16gbjcno9b4uv)" height="432.1406" id="Cell" style="stroke:#A80036;stroke-width:1.5;" width="268" x="482" y="7"/><ellipse cx="600.75" cy="23" fill="#ADD1B2" rx="11" ry="11" style="stroke:#A80036;stroke-width:1.0;"/><path d="M603.7188,28.6406 Q603.1406,28.9375 602.5,29.0781 Q601.8594,29.2344 601.1563,29.2344 Q598.6563,29.2344 597.3281,27.5938 Q596.0156,25.9375 596.0156,22.8125 Q596.0156,19.6875 597.3281,18.0313 Q598.6563,16.375 601.1563,16.375 Q601.8594,16.375 602.5,16.5313 Q603.1563,16.6875 603.7188,16.9844 L603.7188,19.7031 Q603.0938,19.125 602.5,18.8594 Q601.9063,18.5781 601.2813,18.5781 Q599.9375,18.5781 599.25,19.6563 Q598.5625,20.7188 598.5625,22.8125 Q598.5625,24.9063 599.25,25.9844 Q599.9375,27.0469 601.2813,27.0469 Q601.9063,27.0469 602.5,26.7813 Q603.0938,26.5 603.7188,25.9219 L603.7188,28.6406 Z " fill="#000000"/><text fill="#000000" font-family="sans-serif" font-size="12" lengthAdjust="spacing" textLength="22" x="621.25" y="27.1543">Cell</text><line style="stroke:#A80036;stroke-width:1.5;" x1="483" x2="749" y1="39" y2="39"/><rect fill="none" height="6" style="stroke:#C82930;stroke-width:1.0;" width="6" x="490" y="47"/><text fill="#000000" font-family="sans-serif" font-size="11" lengthAdjust="spacing" textLength="132" x="502" y="53.2104">paths: Map&lt;Cote,Cell&gt;</text><rect fill="none" height="6" style="stroke:#C82930;stroke-width:1.0;" width="6" x="490" y="59.8047"/><text fill="#000000" font-family="sans-serif" font-size="11" lengthAdjust="spacing" textLength="61" x="502" y="66.0151">coordX: int</text><rect fill="none" height="6" style="stroke:#C82930;stroke-width:1.0;" width="6" x="490" y="72.6094"/><text fill="#000000" font-family="sans-serif" font-size="11" lengthAdjust="spacing" textLength="61" x="502" y="78.8198">coordY: int</text><rect fill="none" height="6" style="stroke:#C82930;stroke-width:1.0;" width="6" x="490" y="85.4141"/><text fill="#000000" font-family="sans-serif" font-size="11" lengthAdjust="spacing" textLength="66" x="502" y="91.6245">number: int</text><rect fill="none" height="6" style="stroke:#C82930;stroke-width:1.0;" width="6" x="490" y="98.2188"/><text fill="#000000" font-family="sans-serif" font-size="11" lengthAdjust="spacing" textLength="114" x="502" y="104.4292">tresor: Consumable</text><rect fill="none" height="6" style="stroke:#C82930;stroke-width:1.0;" width="6" x="490" y="111.0234"/><text fill="#000000" font-family="sans-serif" font-size="11" lengthAdjust="spacing" textLength="221" x="502" y="117.2339">charactersOnTheCell: List&lt;Character&gt;</text><rect fill="none" height="6" style="stroke:#C82930;stroke-width:1.0;" width="6" x="490" y="123.8281"/><text fill="#000000" font-family="sans-serif" font-size="11" lengthAdjust="spacing" textLength="46" x="502" y="130.0386">gold: int</text><line style="stroke:#A80036;stroke-width:1.5;" x1="483" x2="749" y1="136.6328" y2="136.6328"/><ellipse cx="493" cy="147.6328" fill="#84BE84" rx="3" ry="3" style="stroke:#038048;stroke-width:1.0;"/><text fill="#000000" font-family="sans-serif" font-size="11" lengthAdjust="spacing" textLength="167" x="502" y="150.8433">Cell(x: int, y: int, number: int)</text><rect fill="#F24D5C" height="6" style="stroke:#C82930;stroke-width:1.0;" width="6" x="490" y="157.4375"/><text fill="#000000" font-family="sans-serif" font-size="11" lengthAdjust="spacing" textLength="90" x="502" y="163.6479">closeCell(): void</text><ellipse cx="493" cy="173.2422" fill="#84BE84" rx="3" ry="3" style="stroke:#038048;stroke-width:1.0;"/><text fill="#000000" font-family="sans-serif" font-size="11" lengthAdjust="spacing" textLength="89" x="502" y="176.4526">getCoordX(): int</text><ellipse cx="493" cy="186.0469" fill="#84BE84" rx="3" ry="3" style="stroke:#038048;stroke-width:1.0;"/><text fill="#000000" font-family="sans-serif" font-size="11" lengthAdjust="spacing" textLength="89" x="502" y="189.2573">getCoordY(): int</text><ellipse cx="493" cy="198.8516" fill="#84BE84" rx="3" ry="3" style="stroke:#038048;stroke-width:1.0;"/><text fill="#000000" font-family="sans-serif" font-size="11" lengthAdjust="spacing" textLength="188" x="502" y="202.062">closeCote(c: Cote, cel: Cell): void</text><ellipse cx="493" cy="211.6563" fill="#84BE84" rx="3" ry="3" style="stroke:#038048;stroke-width:1.0;"/><text fill="#000000" font-family="sans-serif" font-size="11" lengthAdjust="spacing" textLength="186" x="502" y="214.8667">openCote(c: Cote, cel: Cell): void</text><ellipse cx="493" cy="224.4609" fill="#84BE84" rx="3" ry="3" style="stroke:#038048;stroke-width:1.0;"/><text fill="#000000" font-family="sans-serif" font-size="11" lengthAdjust="spacing" textLength="158" x="502" y="227.6714">getPaths(): Map&lt;Cote,Cell&gt;</text><ellipse cx="493" cy="237.2656" fill="#84BE84" rx="3" ry="3" style="stroke:#038048;stroke-width:1.0;"/><text fill="#000000" font-family="sans-serif" font-size="11" lengthAdjust="spacing" textLength="203" x="502" y="240.4761">getMobileNPCs(): List&lt;Mobile_NPC&gt;</text><ellipse cx="493" cy="250.0703" fill="#84BE84" rx="3" ry="3" style="stroke:#038048;stroke-width:1.0;"/><text fill="#000000" font-family="sans-serif" font-size="11" lengthAdjust="spacing" textLength="180" x="502" y="253.2808">setTresor(c: Consumable): void</text><ellipse cx="493" cy="262.875" fill="#84BE84" rx="3" ry="3" style="stroke:#038048;stroke-width:1.0;"/><text fill="#000000" font-family="sans-serif" font-size="11" lengthAdjust="spacing" textLength="147" x="502" y="266.0854">containsTresor(): boolean</text><ellipse cx="493" cy="275.6797" fill="#84BE84" rx="3" ry="3" style="stroke:#038048;stroke-width:1.0;"/><text fill="#000000" font-family="sans-serif" font-size="11" lengthAdjust="spacing" textLength="143" x="502" y="278.8901">getTresor(): Consumable</text><ellipse cx="493" cy="288.4844" fill="#84BE84" rx="3" ry="3" style="stroke:#038048;stroke-width:1.0;"/><text fill="#000000" font-family="sans-serif" font-size="11" lengthAdjust="spacing" textLength="183" x="502" y="291.6948">setCharacter(c: Character): void</text><ellipse cx="493" cy="301.2891" fill="#84BE84" rx="3" ry="3" style="stroke:#038048;stroke-width:1.0;"/><text fill="#000000" font-family="sans-serif" font-size="11" lengthAdjust="spacing" textLength="197" x="502" y="304.4995">unsetCharacter(c: Character): void</text><ellipse cx="493" cy="314.0938" fill="#84BE84" rx="3" ry="3" style="stroke:#038048;stroke-width:1.0;"/><text fill="#000000" font-family="sans-serif" font-size="11" lengthAdjust="spacing" textLength="184" x="502" y="317.3042">getCharcters(): List&lt;Character&gt;</text><ellipse cx="493" cy="326.8984" fill="#84BE84" rx="3" ry="3" style="stroke:#038048;stroke-width:1.0;"/><text fill="#000000" font-family="sans-serif" font-size="11" lengthAdjust="spacing" textLength="93" x="502" y="330.1089">getNumber(): int</text><ellipse cx="493" cy="339.7031" fill="#84BE84" rx="3" ry="3" style="stroke:#038048;stroke-width:1.0;"/><text fill="#000000" font-family="sans-serif" font-size="11" lengthAdjust="spacing" textLength="234" x="502" y="342.9136">removeFromTresor(c: Consumable): void</text><ellipse cx="493" cy="352.5078" fill="#84BE84" rx="3" ry="3" style="stroke:#038048;stroke-width:1.0;"/><text fill="#000000" font-family="sans-serif" font-size="11" lengthAdjust="spacing" textLength="242" x="502" y="355.7183">removeCharacFromCell(c: Character): void</text><ellipse cx="493" cy="365.3125" fill="#84BE84" rx="3" ry="3" style="stroke:#038048;stroke-width:1.0;"/><text fill="#000000" font-family="sans-serif" font-size="11" lengthAdjust="spacing" textLength="156" x="502" y="368.5229">isHeroOnTheCell(): boolean</text><ellipse cx="493" cy="378.1172" fill="#84BE84" rx="3" ry="3" style="stroke:#038048;stroke-width:1.0;"/><text fill="#000000" font-family="sans-serif" font-size="11" lengthAdjust="spacing" textLength="170" x="502" y="381.3276">whoCanbeAsked(): List&lt;NPC&gt;</text><ellipse cx="493" cy="390.9219" fill="#84BE84" rx="3" ry="3" style="stroke:#038048;stroke-width:1.0;"/><text fill="#000000" font-family="sans-serif" font-size="11" lengthAdjust="spacing" textLength="95" x="502" y="394.1323">toString(): String</text><ellipse cx="493" cy="403.7266" fill="#84BE84" rx="3" ry="3" style="stroke:#038048;stroke-width:1.0;"/><text fill="#000000" font-family="sans-serif" font-size="11" lengthAdjust="spacing" textLength="74" x="502" y="406.937">getGold(): int</text><ellipse cx="493" cy="416.5313" fill="#84BE84" rx="3" ry="3" style="stroke:#038048;stroke-width:1.0;"/><text fill="#000000" font-family="sans-serif" font-size="11" lengthAdjust="spacing" textLength="112" x="502" y="419.7417">setGold(g: int): void</text><ellipse cx="493" cy="429.3359" fill="#84BE84" rx="3" ry="3" style="stroke:#038048;stroke-width:1.0;"/><text fill="#000000" font-family="sans-serif" font-size="11" lengthAdjust="spacing" textLength="90" x="502" y="432.5464">display(): String</text></a><!--MD5=[4a5690a29748eb1ec23bbd2ae8a46e10]
class RecursiveMaze--><a href="java:Maze.RecursiveMaze" target="_top" title="java:Maze.RecursiveMaze" xlink:actuate="onRequest" xlink:href="java:Maze.RecursiveMaze" xlink:show="new" xlink:title="java:Maze.RecursiveMaze" xlink:type="simple"><rect codeLine="72" fill="#FEFECE" filter="url(#f16gbjcno9b4uv)" height="137.6328" id="RecursiveMaze" style="stroke:#A80036;stroke-width:1.5;" width="350" x="447" y="500"/><ellipse cx="572.25" cy="516" fill="#ADD1B2" rx="11" ry="11" style="stroke:#A80036;stroke-width:1.0;"/><path d="M575.2188,521.6406 Q574.6406,521.9375 574,522.0781 Q573.3594,522.2344 572.6563,522.2344 Q570.1563,522.2344 568.8281,520.5938 Q567.5156,518.9375 567.5156,515.8125 Q567.5156,512.6875 568.8281,511.0313 Q570.1563,509.375 572.6563,509.375 Q573.3594,509.375 574,509.5313 Q574.6563,509.6875 575.2188,509.9844 L575.2188,512.7031 Q574.5938,512.125 574,511.8594 Q573.4063,511.5781 572.7813,511.5781 Q571.4375,511.5781 570.75,512.6563 Q570.0625,513.7188 570.0625,515.8125 Q570.0625,517.9063 570.75,518.9844 Q571.4375,520.0469 572.7813,520.0469 Q573.4063,520.0469 574,519.7813 Q574.5938,519.5 575.2188,518.9219 L575.2188,521.6406 Z " fill="#000000"/><text fill="#000000" font-family="sans-serif" font-size="12" lengthAdjust="spacing" textLength="91" x="592.75" y="520.1543">RecursiveMaze</text><line style="stroke:#A80036;stroke-width:1.5;" x1="448" x2="796" y1="532" y2="532"/><line style="stroke:#A80036;stroke-width:1.5;" x1="448" x2="796" y1="540" y2="540"/><ellipse cx="458" cy="551" fill="#84BE84" rx="3" ry="3" style="stroke:#038048;stroke-width:1.0;"/><text fill="#000000" font-family="sans-serif" font-size="11" lengthAdjust="spacing" textLength="159" x="467" y="554.2104">RecursiveMaze(w: int, h: int)</text><ellipse cx="458" cy="563.8047" fill="#84BE84" rx="3" ry="3" style="stroke:#038048;stroke-width:1.0;"/><text fill="#000000" font-family="sans-serif" font-size="11" lengthAdjust="spacing" textLength="84" x="467" y="567.0151">initMaze(): void</text><polygon fill="#FFFF44" points="458,571.6094,462,575.6094,458,579.6094,454,575.6094" style="stroke:#B38D22;stroke-width:1.0;"/><text fill="#000000" font-family="sans-serif" font-size="11" lengthAdjust="spacing" textLength="324" x="467" y="579.8198">divide(x: int, y: int, width: int, height: int, orient: int): void</text><polygon fill="#FFFF44" points="458,584.4141,462,588.4141,458,592.4141,454,588.4141" style="stroke:#B38D22;stroke-width:1.0;"/><text fill="#000000" font-family="sans-serif" font-size="11" lengthAdjust="spacing" textLength="251" x="467" y="592.6245">addWallsX(ligne: int, debut: int, fin: int): void</text><polygon fill="#FFFF44" points="458,597.2188,462,601.2188,458,605.2188,454,601.2188" style="stroke:#B38D22;stroke-width:1.0;"/><text fill="#000000" font-family="sans-serif" font-size="11" lengthAdjust="spacing" textLength="268" x="467" y="605.4292">addWallsY(colonne: int, debut: int, fin: int): void</text><polygon fill="#FFFF44" points="458,610.0234,462,614.0234,458,618.0234,454,614.0234" style="stroke:#B38D22;stroke-width:1.0;"/><text fill="#000000" font-family="sans-serif" font-size="11" lengthAdjust="spacing" textLength="208" x="467" y="618.2339">orientation(width: int, height: int): int</text><polygon fill="#FFFF44" points="458,622.8281,462,626.8281,458,630.8281,454,626.8281" style="stroke:#B38D22;stroke-width:1.0;"/><text fill="#000000" font-family="sans-serif" font-size="11" lengthAdjust="spacing" textLength="137" x="467" y="631.0386">randomOrientation(): int</text></a><!--MD5=[0761df39af60ad60506ee2b3da670429]
class Cote--><a href="java:Maze.Cote" target="_top" title="java:Maze.Cote" xlink:actuate="onRequest" xlink:href="java:Maze.Cote" xlink:show="new" xlink:title="java:Maze.Cote" xlink:type="simple"><rect codeLine="90" fill="#FEFECE" filter="url(#f16gbjcno9b4uv)" height="99.2188" id="Cote" style="stroke:#A80036;stroke-width:1.5;" width="61" x="785.5" y="173.5"/><ellipse cx="800.5" cy="189.5" fill="#ADD1B2" rx="11" ry="11" style="stroke:#A80036;stroke-width:1.0;"/><path d="M803.4688,195.1406 Q802.8906,195.4375 802.25,195.5781 Q801.6094,195.7344 800.9063,195.7344 Q798.4063,195.7344 797.0781,194.0938 Q795.7656,192.4375 795.7656,189.3125 Q795.7656,186.1875 797.0781,184.5313 Q798.4063,182.875 800.9063,182.875 Q801.6094,182.875 802.25,183.0313 Q802.9063,183.1875 803.4688,183.4844 L803.4688,186.2031 Q802.8438,185.625 802.25,185.3594 Q801.6563,185.0781 801.0313,185.0781 Q799.6875,185.0781 799,186.1563 Q798.3125,187.2188 798.3125,189.3125 Q798.3125,191.4063 799,192.4844 Q799.6875,193.5469 801.0313,193.5469 Q801.6563,193.5469 802.25,193.2813 Q802.8438,193 803.4688,192.4219 L803.4688,195.1406 Z " fill="#000000"/><text fill="#000000" font-family="sans-serif" font-size="12" lengthAdjust="spacing" textLength="29" x="814.5" y="193.6543">Cote</text><line style="stroke:#A80036;stroke-width:1.5;" x1="786.5" x2="845.5" y1="205.5" y2="205.5"/><text fill="#000000" font-family="sans-serif" font-size="11" lengthAdjust="spacing" textLength="32" x="791.5" y="219.7104">NORD</text><text fill="#000000" font-family="sans-serif" font-size="11" lengthAdjust="spacing" textLength="24" x="791.5" y="232.5151">SUD</text><text fill="#000000" font-family="sans-serif" font-size="11" lengthAdjust="spacing" textLength="22" x="791.5" y="245.3198">EST</text><text fill="#000000" font-family="sans-serif" font-size="11" lengthAdjust="spacing" textLength="39" x="791.5" y="258.1245">OUEST</text><line style="stroke:#A80036;stroke-width:1.5;" x1="786.5" x2="845.5" y1="264.7188" y2="264.7188"/></a><!--MD5=[1f041121d6bd33f93381190dbba3a931]
class InvalidCellException--><a href="java:Maze.InvalidCellException" target="_top" title="java:Maze.InvalidCellException" xlink:actuate="onRequest" xlink:href="java:Maze.InvalidCellException" xlink:show="new" xlink:title="java:Maze.InvalidCellException" xlink:type="simple"><rect codeLine="93" fill="#FEFECE" filter="url(#f16gbjcno9b4uv)" height="73.6094" id="InvalidCellException" style="stroke:#A80036;stroke-width:1.5;" width="212" x="934" y="532"/><ellipse cx="975.1" cy="548" fill="#ADD1B2" rx="11" ry="11" style="stroke:#A80036;stroke-width:1.0;"/><path d="M978.0688,553.6406 Q977.4906,553.9375 976.85,554.0781 Q976.2094,554.2344 975.5063,554.2344 Q973.0063,554.2344 971.6781,552.5938 Q970.3656,550.9375 970.3656,547.8125 Q970.3656,544.6875 971.6781,543.0313 Q973.0063,541.375 975.5063,541.375 Q976.2094,541.375 976.85,541.5313 Q977.5063,541.6875 978.0688,541.9844 L978.0688,544.7031 Q977.4438,544.125 976.85,543.8594 Q976.2563,543.5781 975.6313,543.5781 Q974.2875,543.5781 973.6,544.6563 Q972.9125,545.7188 972.9125,547.8125 Q972.9125,549.9063 973.6,550.9844 Q974.2875,552.0469 975.6313,552.0469 Q976.2563,552.0469 976.85,551.7813 Q977.4438,551.5 978.0688,550.9219 L978.0688,553.6406 Z " fill="#000000"/><text fill="#000000" font-family="sans-serif" font-size="12" lengthAdjust="spacing" textLength="122" x="994.9" y="552.1543">InvalidCellException</text><line style="stroke:#A80036;stroke-width:1.5;" x1="935" x2="1145" y1="564" y2="564"/><line style="stroke:#A80036;stroke-width:1.5;" x1="935" x2="1145" y1="572" y2="572"/><ellipse cx="945" cy="583" fill="#84BE84" rx="3" ry="3" style="stroke:#038048;stroke-width:1.0;"/><text fill="#000000" font-family="sans-serif" font-size="11" lengthAdjust="spacing" textLength="119" x="954" y="586.2104">InvalidCellException()</text><ellipse cx="945" cy="595.8047" fill="#84BE84" rx="3" ry="3" style="stroke:#038048;stroke-width:1.0;"/><text fill="#000000" font-family="sans-serif" font-size="11" lengthAdjust="spacing" textLength="186" x="954" y="599.0151">InvalidCellException(msg: String)</text></a><!--MD5=[5c6c7d52e42032554528404b62c1d271]
class RuntimeException--><rect codeLine="97" fill="#FEFECE" filter="url(#f16gbjcno9b4uv)" height="48" id="RuntimeException" style="stroke:#A80036;stroke-width:1.5;" width="144" x="968" y="199"/><ellipse cx="983" cy="215" fill="#ADD1B2" rx="11" ry="11" style="stroke:#A80036;stroke-width:1.0;"/><path d="M985.9688,220.6406 Q985.3906,220.9375 984.75,221.0781 Q984.1094,221.2344 983.4063,221.2344 Q980.9063,221.2344 979.5781,219.5938 Q978.2656,217.9375 978.2656,214.8125 Q978.2656,211.6875 979.5781,210.0313 Q980.9063,208.375 983.4063,208.375 Q984.1094,208.375 984.75,208.5313 Q985.4063,208.6875 985.9688,208.9844 L985.9688,211.7031 Q985.3438,211.125 984.75,210.8594 Q984.1563,210.5781 983.5313,210.5781 Q982.1875,210.5781 981.5,211.6563 Q980.8125,212.7188 980.8125,214.8125 Q980.8125,216.9063 981.5,217.9844 Q982.1875,219.0469 983.5313,219.0469 Q984.1563,219.0469 984.75,218.7813 Q985.3438,218.5 985.9688,217.9219 L985.9688,220.6406 Z " fill="#000000"/><text fill="#000000" font-family="sans-serif" font-size="12" lengthAdjust="spacing" textLength="112" x="997" y="219.1543">RuntimeException</text><line style="stroke:#A80036;stroke-width:1.5;" x1="969" x2="1111" y1="231" y2="231"/><line style="stroke:#A80036;stroke-width:1.5;" x1="969" x2="1111" y1="239" y2="239"/><!--MD5=[fa0c9f626649194332b00725b3fb5ac1]
reverse link Maze to SideWinderMaze--><path codeLine="13" d="M248.01,354 C230.32,382.11 211.62,411.6 194,439 C178.33,463.36 160.75,490.13 145.67,512.93 " fill="none" id="Maze-backto-SideWinderMaze" style="stroke:#A80036;stroke-width:1.0;"/><polygon fill="none" points="242.3,349.93,258.87,336.72,254.16,357.37,242.3,349.93" style="stroke:#A80036;stroke-width:1.0;"/><!--MD5=[532fab7e1049f94a29dd0dd6f41f21f8]
reverse link Maze to BinaryMaze--><path codeLine="23" d="M329,356.69 C329,410.84 329,470.48 329,512.56 " fill="none" id="Maze-backto-BinaryMaze" style="stroke:#A80036;stroke-width:1.0;"/><polygon fill="none" points="322,356.64,329,336.64,336,356.64,322,356.64" style="stroke:#A80036;stroke-width:1.0;"/><!--MD5=[fb5f2a08b6b3af095438e773dd667a6c]
reverse link Maze to RecursiveMaze--><path codeLine="83" d="M400.92,353.73 C419.73,383.08 441.2,413.18 464,439 C482.99,460.5 505.78,481.31 528.06,499.71 " fill="none" id="Maze-backto-RecursiveMaze" style="stroke:#A80036;stroke-width:1.0;"/><polygon fill="none" points="394.85,357.23,390.16,336.57,406.71,349.79,394.85,357.23" style="stroke:#A80036;stroke-width:1.0;"/><!--MD5=[9b06018bf6860d0fe3bb3dec953c4767]
link Cote to Cote--><path codeLine="92" d="M846.66,179.58 C864.66,170.33 881.5,184.8 881.5,223 C881.5,257.62 867.67,272.75 851.68,268.4 " fill="none" id="Cote-to-Cote" style="stroke:#A80036;stroke-width:1.0;"/><polygon fill="#A80036" points="846.66,266.42,853.5755,273.4326,851.3141,268.2474,856.4993,265.986,846.66,266.42" style="stroke:#A80036;stroke-width:1.0;"/><text fill="#000000" font-family="sans-serif" font-size="13" lengthAdjust="spacing" textLength="56" x="887.5" y="227.5669">inverse()</text><text fill="#000000" font-family="sans-serif" font-size="13" lengthAdjust="spacing" textLength="8" x="854.6751" y="271.7835">1</text><!--MD5=[2cfab45abc8aab358d9cfe2b63a2049e]
reverse link RuntimeException to InvalidCellException--><path codeLine="99" d="M1040,267.33 C1040,335.85 1040,467.95 1040,531.76 " fill="none" id="RuntimeException-backto-InvalidCellException" style="stroke:#A80036;stroke-width:1.0;"/><polygon fill="none" points="1033,267.11,1040,247.1,1047,267.1,1033,267.11" style="stroke:#A80036;stroke-width:1.0;"/><!--MD5=[f9e5dab82bbc038ea53892a80dc7b52c]
@startuml
class MazeMain [[java:Maze.MazeMain]] {
	+{static} main(args: String[]): void
}
class SideWinderMaze [[java:Maze.SideWinderMaze]] {
	-casser: int
	+SideWinderMaze(w: int, h: int)
	+initMaze(): void
	-openEastWall(y: int, x: int): void
	-randomPath(): int
}
class Maze {
}
Maze <|- - SideWinderMaze
class BinaryMaze [[java:Maze.BinaryMaze]] {
	#INDEST: int
	#INDSUD: int
	+BinaryMaze(w: int, h: int)
	+initMaze(): void
	-randomPath(): int
}
class Maze {
}
Maze <|- - BinaryMaze
abstract class Maze [[java:Maze.Maze]] {
	#theCells: Cell[][]
	#width: int
	#height: int
	#{static} ALEA: Random
	+Maze(w: int, h: int)
	+getWidth(): int
	+getHeight(): int
	+getCell(x: int, y: int): Cell
	+openAllCells(): void
	+{abstract} initMaze(): void
	+getAllmobileNpc(): List<Mobile_NPC>
	+toString(): String
	+display(): void
	+getCellByNumber(x: int): Cell
}
class Cell [[java:Maze.Cell]] {
	-paths: Map<Cote,Cell>
	-coordX: int
	-coordY: int
	-number: int
	-tresor: Consumable
	-charactersOnTheCell: List<Character>
	-gold: int
	+Cell(x: int, y: int, number: int)
	-closeCell(): void
	+getCoordX(): int
	+getCoordY(): int
	+closeCote(c: Cote, cel: Cell): void
	+openCote(c: Cote, cel: Cell): void
	+getPaths(): Map<Cote,Cell>
	+getMobileNPCs(): List<Mobile_NPC>
	+setTresor(c: Consumable): void
	+containsTresor(): boolean
	+getTresor(): Consumable
	+setCharacter(c: Character): void
	+unsetCharacter(c: Character): void
	+getCharcters(): List<Character>
	+getNumber(): int
	+removeFromTresor(c: Consumable): void
	+removeCharacFromCell(c: Character): void
	+isHeroOnTheCell(): boolean
	+whoCanbeAsked(): List<NPC>
	+toString(): String
	+getGold(): int
	+setGold(g: int): void
	+display(): String
}
class RecursiveMaze [[java:Maze.RecursiveMaze]] {
	+RecursiveMaze(w: int, h: int)
	+initMaze(): void
	#divide(x: int, y: int, width: int, height: int, orient: int): void
	#addWallsX(ligne: int, debut: int, fin: int): void
	#addWallsY(colonne: int, debut: int, fin: int): void
	#orientation(width: int, height: int): int
	#randomOrientation(): int
}
class Maze {
}
Maze <|- - RecursiveMaze
enum Cote [[java:Maze.Cote]] {
	NORD
	SUD
	EST
	OUEST
}
class Cote {
}
Cote - -> "1" Cote : inverse()
class InvalidCellException [[java:Maze.InvalidCellException]] {
	+InvalidCellException()
	+InvalidCellException(msg: String)
}
class RuntimeException {
}
RuntimeException <|- - InvalidCellException
@enduml

PlantUML version 1.2021.5(Sun Apr 25 13:20:28 CEST 2021)
(EPL source distribution)
Java Runtime: Java(TM) SE Runtime Environment
JVM: Java HotSpot(TM) 64-Bit Server VM
Default Encoding: UTF-8
Language: fr
Country: FR
--></g></svg>